<?xml version="1.0" encoding="UTF-8"?>
<svg version="1.1" xmlns="http://www.w3.org/2000/svg" width="512" height="512">
<path d="M0 0 C1.01790619 0.00215515 2.03581238 0.0043103 3.08456421 0.00653076 C17.69363523 0.05620146 32.02575853 0.30709809 46.375 3.3125 C47.34985352 3.51117676 48.32470703 3.70985352 49.32910156 3.91455078 C97.7109774 14.03517194 141.69928269 35.9516877 177.375 70.3125 C178.3640332 71.26068604 178.3640332 71.26068604 179.37304688 72.22802734 C188.86130305 81.37247479 197.6012044 90.66984009 205.375 101.3125 C206.23306152 102.46355017 207.09113451 103.61459177 207.94921875 104.765625 C213.98736829 112.95680614 219.34595521 121.47054105 224.375 130.3125 C224.73948242 130.94430176 225.10396484 131.57610352 225.47949219 132.22705078 C247.08534998 169.97532572 256.85198095 212.74189997 256.6875 255.9375 C256.68534485 256.95540619 256.6831897 257.97331238 256.68096924 259.02206421 C256.63129854 273.63113523 256.38040191 287.96325853 253.375 302.3125 C253.07698486 303.77478027 253.07698486 303.77478027 252.77294922 305.26660156 C242.65232806 353.6484774 220.7358123 397.63678269 186.375 433.3125 C185.74287598 433.97185547 185.11075195 434.63121094 184.45947266 435.31054688 C175.31502521 444.79880305 166.01765991 453.5387044 155.375 461.3125 C154.22394983 462.17056152 153.07290823 463.02863451 151.921875 463.88671875 C143.73224019 469.92427396 135.22961724 475.30707302 126.375 480.3125 C125.66778809 480.7146875 124.96057617 481.116875 124.23193359 481.53125 C101.09654164 494.5566741 75.92537591 503.30551461 49.9375 508.625 C49.21860596 508.77235596 48.49971191 508.91971191 47.7590332 509.0715332 C33.08339502 511.86090125 18.55831162 512.66142619 3.64770508 512.62817383 C0.70811513 512.6250221 -2.2304558 512.64854926 -5.16992188 512.67382812 C-18.54306192 512.71848737 -31.43916711 511.51301542 -44.625 509.3125 C-46.33055054 509.03031616 -46.33055054 509.03031616 -48.07055664 508.74243164 C-91.33802759 500.97044532 -132.38793216 480.98345309 -165.625 452.3125 C-166.37007813 451.67828125 -167.11515625 451.0440625 -167.8828125 450.390625 C-181.38779833 438.57948485 -194.05918743 425.82889772 -204.625 411.3125 C-205.48149066 410.16255169 -206.33826433 409.01281411 -207.1953125 407.86328125 C-213.23534209 399.67315742 -218.61867614 391.16870382 -223.625 382.3125 C-224.0271875 381.60528809 -224.429375 380.89807617 -224.84375 380.16943359 C-237.8691741 357.03404164 -246.61801461 331.86287591 -251.9375 305.875 C-252.08485596 305.15610596 -252.23221191 304.43721191 -252.3840332 303.6965332 C-255.35789088 288.05024391 -255.99800362 272.57681954 -255.9375 256.6875 C-255.93534485 255.66959381 -255.9331897 254.65168762 -255.93096924 253.60293579 C-255.88129854 238.99386477 -255.63040191 224.66174147 -252.625 210.3125 C-252.42632324 209.33764648 -252.22764648 208.36279297 -252.02294922 207.35839844 C-241.90232806 158.9765226 -219.9858123 114.98821731 -185.625 79.3125 C-184.99287598 78.65314453 -184.36075195 77.99378906 -183.70947266 77.31445312 C-174.56502521 67.82619695 -165.26765991 59.0862956 -154.625 51.3125 C-153.47394983 50.45443848 -152.32290823 49.59636549 -151.171875 48.73828125 C-142.98224019 42.70072604 -134.47961724 37.31792698 -125.625 32.3125 C-124.91778809 31.9103125 -124.21057617 31.508125 -123.48193359 31.09375 C-100.34654164 18.0683259 -75.17537591 9.31948539 -49.1875 4 C-48.46860596 3.85264404 -47.74971191 3.70528809 -47.0090332 3.5534668 C-31.36274391 0.57960912 -15.88931954 -0.06050362 0 0 Z " fill="#F1F1F1" transform="translate(255.625,-0.3125)"/>
<path d="M0 0 C1.03398926 0.51578613 1.03398926 0.51578613 2.08886719 1.04199219 C7.80412014 3.89573073 7.80412014 3.89573073 10.45947266 5.24755859 C13.46595868 6.77222642 16.44307193 8.18481596 19.55859375 9.484375 C34.12209133 15.89826497 47.15335115 27.25280147 58.76171875 37.94921875 C60.86296619 39.87444546 63.01319306 41.72078303 65.1875 43.5625 C69.19617841 47.06809726 72.57676421 50.93151144 76 55 C77.25296875 56.42119141 77.25296875 56.42119141 78.53125 57.87109375 C85.46285053 65.77828031 91.4720901 74.05752517 97 83 C97.56799316 83.91724854 97.56799316 83.91724854 98.14746094 84.85302734 C113.75999368 110.4518939 123.72116393 139.58530917 129 169 C129.13132324 169.71575195 129.26264648 170.43150391 129.39794922 171.16894531 C134.06747757 197.92868281 131.35535735 226.52456981 126 253 C125.86899902 253.67562988 125.73799805 254.35125977 125.60302734 255.04736328 C116.17107519 302.93704537 86.15791778 349.00777391 48 379 C46.48599609 380.22203125 46.48599609 380.22203125 44.94140625 381.46875 C37.05760458 387.76072365 28.74720431 392.99122741 20 398 C16.93057061 395.16001025 14.90081258 392.40137415 12.8984375 388.73828125 C12.33133057 387.710979 11.76422363 386.68367676 11.17993164 385.62524414 C10.5843042 384.53203857 9.98867676 383.43883301 9.375 382.3125 C8.11206571 380.02527436 6.84774001 377.73881647 5.58203125 375.453125 C4.96666504 374.34001953 4.35129883 373.22691406 3.71728516 372.08007812 C1.556955 368.20536598 -0.67034855 364.37541455 -2.9375 360.5625 C-6.99529284 353.71253653 -11.03005607 346.84953672 -15.02859497 339.96481323 C-15.71285419 338.78855146 -16.398925 337.61334149 -17.08688354 336.4392395 C-18.05347954 334.78904352 -19.01319707 333.13482442 -19.97265625 331.48046875 C-20.53218994 330.52035889 -21.09172363 329.56024902 -21.66821289 328.57104492 C-22.82955667 326.32904468 -23.53765558 324.46571585 -24 322 C-23.24976563 321.5153125 -22.49953125 321.030625 -21.7265625 320.53125 C12.27947777 298.26029164 32.83995969 267.40108211 41.38671875 227.484375 C47.7436502 191.36728677 38.92082499 155.37925811 19 125 C16.8036277 121.86638262 14.48621799 118.90779408 12 116 C11.32453125 115.20335937 10.6490625 114.40671875 9.953125 113.5859375 C-7.4123804 93.69566003 -28.35912513 81.19623469 -53.3125 73.0625 C-54.17045166 72.77995361 -55.02840332 72.49740723 -55.91235352 72.20629883 C-67.72245457 68.55614818 -79.65534731 67.66258126 -91.95898438 67.73925781 C-93.99899995 67.74999474 -96.03813547 67.73927576 -98.078125 67.7265625 C-118.69217716 67.70269719 -136.56041214 72.59097425 -155.07421875 81.23046875 C-158.31733606 82.73387462 -161.57844751 83.94928703 -165 85 C-173.10157279 71.31310761 -181.05111846 57.54009536 -188.98797607 43.75720215 C-191.74371062 38.97235217 -194.50134621 34.18859829 -197.25967407 29.40524292 C-198.22843991 27.72489647 -199.19662406 26.04421471 -200.16479492 24.36352539 C-200.75494385 23.3399292 -201.34509277 22.31633301 -201.953125 21.26171875 C-202.47036133 20.36412842 -202.98759766 19.46653809 -203.52050781 18.54174805 C-204.54826225 16.7760795 -205.60740082 15.02845695 -206.69042969 13.29614258 C-208 11 -208 11 -208 9 C-204.37926054 7.21203775 -200.7536092 5.43446366 -197.12353516 3.66552734 C-195.89467674 3.06502968 -194.66708746 2.46192636 -193.44091797 1.85595703 C-186.24039556 -1.70007492 -179.13109912 -4.83842817 -171.45361328 -7.21582031 C-168.8059756 -8.01303346 -168.8059756 -8.01303346 -165.625 -9.5 C-114.4407476 -30.67969065 -48.66674372 -24.37071207 0 0 Z " fill="#F7B54C" transform="translate(350,52)"/>
<path d="M0 0 C0.91796875 1.59114583 1.8359375 3.18229167 2.75390625 4.7734375 C3.35356201 5.81282471 3.95321777 6.85221191 4.57104492 7.9230957 C5.91631595 10.25493181 7.26153882 12.58679562 8.60668945 14.91870117 C12.04112982 20.87236305 15.4764046 26.82553878 18.9140625 32.77734375 C22.0132354 38.14334937 25.10808922 43.51182958 28.20117188 48.88134766 C29.99999856 51.9999975 31.80449259 55.11532062 33.609375 58.23046875 C34.71895904 60.15352523 35.82834434 62.07669641 36.9375 64 C37.45207764 64.88469971 37.96665527 65.76939941 38.49682617 66.6809082 C38.96064697 67.4874585 39.42446777 68.29400879 39.90234375 69.125 C40.30960693 69.82882813 40.71687012 70.53265625 41.13647461 71.2578125 C42 73 42 73 42 75 C40.44101062 76.08857866 38.82399356 77.09433668 37.1875 78.0625 C7.40886833 96.55499214 -12.8414764 127.44356394 -20.85205078 161.29492188 C-28.60699212 195.84821791 -23.54193758 234.73830606 -4.43041992 264.93212891 C8.20005886 284.04034882 24.30619975 298.95781378 43 312 C41.7423893 316.10897287 40.22023808 319.65406986 38.05078125 323.359375 C37.45740967 324.37974854 36.86403809 325.40012207 36.25268555 326.45141602 C35.61242432 327.53994873 34.97216309 328.62848145 34.3125 329.75 C33.29815433 331.49037253 32.28381764 333.23075037 31.27003479 334.97145081 C30.21709521 336.77796163 29.16185464 338.58311478 28.10644531 340.38818359 C25.41343923 344.99929358 22.75178133 349.62825006 20.08935547 354.25708008 C17.63064454 358.53031336 15.16353634 362.79866239 12.6953125 367.06640625 C11.59727084 368.96647372 10.50081388 370.86745823 9.40625 372.76953125 C8.0050067 375.20346167 6.59733199 377.63353765 5.1875 380.0625 C4.78490967 380.76511963 4.38231934 381.46773926 3.9675293 382.19165039 C1.22885772 386.88557114 1.22885772 386.88557114 -1 388 C-3.87034747 386.78167589 -6.4777112 385.01481414 -9.125 383.375 C-9.9296167 382.87863037 -10.7342334 382.38226074 -11.56323242 381.87084961 C-19.9452795 376.58034566 -27.54234552 370.51109079 -35 364 C-35.57588867 363.49855469 -36.15177734 362.99710937 -36.74511719 362.48046875 C-71.40911151 332.01634388 -92.77944427 293.18575935 -105 249 C-105.21140625 248.23977539 -105.4228125 247.47955078 -105.640625 246.69628906 C-106.96306435 241.83319705 -108.06462536 236.95185603 -109 232 C-109.14953125 231.20883789 -109.2990625 230.41767578 -109.453125 229.60253906 C-113.91200419 204.68470775 -113.86156055 177.82622814 -109 153 C-108.72913422 151.45205585 -108.45960629 149.903877 -108.19140625 148.35546875 C-98.99738669 97.91517522 -69.34068786 49.57097311 -29 18 C-27.95807539 17.1669892 -26.91641637 16.33364611 -25.875 15.5 C-6.32651457 0 -6.32651457 0 0 0 Z " fill="#84DBFE" transform="translate(143,63)"/>
<path d="M0 0 C28.71 0 57.42 0 87 0 C87 15.21059261 87 15.21059261 86.1875 22.75 C86.09839355 23.59925049 86.00928711 24.44850098 85.91748047 25.32348633 C85.00189329 33.62961262 83.65624473 41.81197653 82 50 C81.86899902 50.67562988 81.73799805 51.35125977 81.60302734 52.04736328 C72.17107519 99.93704537 42.15791778 146.00777391 4 176 C2.99066406 176.8146875 1.98132813 177.629375 0.94140625 178.46875 C-6.94239542 184.76072365 -15.25279569 189.99122741 -24 195 C-27.06942939 192.16001025 -29.09918742 189.40137415 -31.1015625 185.73828125 C-31.66866943 184.710979 -32.23577637 183.68367676 -32.82006836 182.62524414 C-33.71350952 180.98543579 -33.71350952 180.98543579 -34.625 179.3125 C-35.88793429 177.02527436 -37.15225999 174.73881647 -38.41796875 172.453125 C-39.03333496 171.34001953 -39.64870117 170.22691406 -40.28271484 169.08007812 C-42.443045 165.20536598 -44.67034855 161.37541455 -46.9375 157.5625 C-50.99529284 150.71253653 -55.03005607 143.84953672 -59.02859497 136.96481323 C-59.71285419 135.78855146 -60.398925 134.61334149 -61.08688354 133.4392395 C-62.05347954 131.78904352 -63.01319707 130.13482442 -63.97265625 128.48046875 C-64.53218994 127.52035889 -65.09172363 126.56024902 -65.66821289 125.57104492 C-66.82955667 123.32904468 -67.53765558 121.46571585 -68 119 C-67.24976563 118.5153125 -66.49953125 118.030625 -65.7265625 117.53125 C-33.08145552 96.15158296 -12.43028589 66.70339521 -3.375 28.5 C-1.64991509 19.09044597 -0.9069798 9.52328791 0 0 Z " fill="#FE7058" transform="translate(394,255)"/>
<path d="M0 0 C0.91796875 1.59114583 1.8359375 3.18229167 2.75390625 4.7734375 C3.35356201 5.81282471 3.95321777 6.85221191 4.57104492 7.9230957 C5.91631595 10.25493181 7.26153882 12.58679562 8.60668945 14.91870117 C12.04112982 20.87236305 15.4764046 26.82553878 18.9140625 32.77734375 C22.0132354 38.14334937 25.10808922 43.51182958 28.20117188 48.88134766 C29.99999856 51.9999975 31.80449259 55.11532062 33.609375 58.23046875 C34.71895904 60.15352523 35.82834434 62.07669641 36.9375 64 C37.45207764 64.88469971 37.96665527 65.76939941 38.49682617 66.6809082 C38.96064697 67.4874585 39.42446777 68.29400879 39.90234375 69.125 C40.30960693 69.82882813 40.71687012 70.53265625 41.13647461 71.2578125 C42 73 42 73 42 75 C40.44101062 76.08857866 38.82399356 77.09433668 37.1875 78.0625 C6.64078894 97.03196846 -12.9742622 128.36141496 -21.3125 162.875 C-23.15218717 172.82293804 -24.04085281 182.92895453 -25 193 C-53.71 193 -82.42 193 -112 193 C-112 171.01022656 -112 171.01022656 -110.75 163.5 C-110.61360107 162.63093018 -110.47720215 161.76186035 -110.33666992 160.86645508 C-109.91272482 158.24009256 -109.4611818 155.62005462 -109 153 C-108.86609863 152.21157715 -108.73219727 151.4231543 -108.59423828 150.61083984 C-99.67123128 99.26839832 -70.03262065 50.11248572 -29 18 C-27.95807539 17.1669892 -26.91641637 16.33364611 -25.875 15.5 C-6.32651457 0 -6.32651457 0 0 0 Z " fill="#54C0EA" transform="translate(143,63)"/>
<path d="M0 0 C-0.67013395 3.3914178 -1.97546055 6.0112775 -3.66796875 9.015625 C-4.22500488 10.00836426 -4.78204102 11.00110352 -5.35595703 12.02392578 C-5.96036621 13.08853027 -6.56477539 14.15313477 -7.1875 15.25 C-8.11731689 16.89911377 -8.11731689 16.89911377 -9.06591797 18.58154297 C-15.1327888 29.30747712 -21.3442978 39.9484742 -27.58300781 50.57519531 C-29.41146022 53.70410456 -31.21047508 56.84869025 -33 60 C-36.44614985 58.6634704 -39.80345396 57.18008762 -43.16259766 55.6394043 C-49.86266848 52.60278349 -56.62536714 49.95279946 -63.625 47.6875 C-64.35090332 47.44547852 -65.07680664 47.20345703 -65.82470703 46.95410156 C-77.2736413 43.37425839 -89.0336708 42.66493898 -100.95898438 42.73925781 C-102.99899995 42.74999474 -105.03813547 42.73927576 -107.078125 42.7265625 C-127.69217716 42.70269719 -145.56041214 47.59097425 -164.07421875 56.23046875 C-167.31733606 57.73387462 -170.57844751 58.94928703 -174 60 C-181.24866487 47.75402029 -188.38669915 35.44569324 -195.48046875 23.109375 C-197.5520221 19.50696197 -199.63290072 15.91086743 -201.73828125 12.328125 C-202.11968262 11.67481201 -202.50108398 11.02149902 -202.89404297 10.34838867 C-203.85110687 8.71036283 -204.81394175 7.0757124 -205.77734375 5.44140625 C-207 3 -207 3 -207 0 C-140.33815835 -30.8002398 -66.40433335 -35.06978855 0 0 Z " fill="#FED15C" transform="translate(359,77)"/>
<path d="M0 0 C1.03398926 0.51578613 1.03398926 0.51578613 2.08886719 1.04199219 C7.80412014 3.89573073 7.80412014 3.89573073 10.45947266 5.24755859 C13.46595868 6.77222642 16.44307193 8.18481596 19.55859375 9.484375 C34.12209133 15.89826497 47.15335115 27.25280147 58.76171875 37.94921875 C60.86296619 39.87444546 63.01319306 41.72078303 65.1875 43.5625 C69.19617841 47.06809726 72.57676421 50.93151144 76 55 C77.25296875 56.42119141 77.25296875 56.42119141 78.53125 57.87109375 C85.46285053 65.77828031 91.4720901 74.05752517 97 83 C97.56799316 83.91724854 97.56799316 83.91724854 98.14746094 84.85302734 C119.56724045 119.97366322 131.92720503 161.84239885 131 203 C130.34 203 129.68 203 129 203 C128.91024902 202.35264893 128.82049805 201.70529785 128.72802734 201.03833008 C126.71443735 186.81907469 124.11103584 173.12452848 119.76904297 159.42724609 C119.02482253 157.07834462 118.30986114 154.72205156 117.59765625 152.36328125 C104.61720891 110.41040289 75.99873782 72.13684731 41 46 C40.42878418 45.56800293 39.85756836 45.13600586 39.26904297 44.69091797 C30.29283836 37.92865592 20.92311785 32.26033237 11 27 C10.35305176 26.65195313 9.70610352 26.30390625 9.03955078 25.9453125 C-1.60867585 20.24769463 -12.52785277 15.76225761 -24 12 C-24.92393555 11.69674805 -25.84787109 11.39349609 -26.79980469 11.08105469 C-79.61858586 -5.84009124 -139.50041825 -2.72554155 -189.39111328 22.19433594 C-190.45241455 22.74395996 -190.45241455 22.74395996 -191.53515625 23.3046875 C-195 25 -195 25 -198 25 C-198.33 25.66 -198.66 26.32 -199 27 C-200.50519387 24.37785672 -202.00431319 21.75255792 -203.5 19.125 C-203.92925781 18.37863281 -204.35851562 17.63226563 -204.80078125 16.86328125 C-205.20683594 16.14785156 -205.61289063 15.43242188 -206.03125 14.6953125 C-206.40830078 14.03547363 -206.78535156 13.37563477 -207.17382812 12.69580078 C-208 11 -208 11 -208 9 C-204.37926054 7.21203775 -200.7536092 5.43446366 -197.12353516 3.66552734 C-195.89467674 3.06502968 -194.66708746 2.46192636 -193.44091797 1.85595703 C-186.24039556 -1.70007492 -179.13109912 -4.83842817 -171.45361328 -7.21582031 C-168.8059756 -8.01303346 -168.8059756 -8.01303346 -165.625 -9.5 C-114.4407476 -30.67969065 -48.66674372 -24.37071207 0 0 Z " fill="#E3BF5F" transform="translate(350,52)"/>
<path d="M0 0 C3.75575367 0.65665721 7.1741927 1.69481886 10.75 3.01171875 C12.46944824 3.64267456 12.46944824 3.64267456 14.22363281 4.28637695 C15.48253445 4.75311443 16.7413198 5.22016567 18 5.6875 C19.3290753 6.17870061 20.65817753 6.66982838 21.98730469 7.16088867 C25.57984077 8.49032415 29.16980361 9.82658355 32.7590332 11.16491699 C34.99958757 11.99984631 37.2409354 12.83261577 39.48242188 13.66503906 C56.56504629 20.01537644 73.57202971 26.5290514 90.4375 33.4375 C91.12807495 33.71864655 91.8186499 33.99979309 92.53015137 34.28945923 C99.66363829 37.20044573 106.72525955 40.23770543 113.66015625 43.59765625 C114.76109619 44.13011963 115.86203613 44.66258301 116.99633789 45.21118164 C123.09242754 48.84168224 128.82076052 54.97687532 131.453125 61.66015625 C133.45154413 70.21053523 133.12698649 79.22704239 128.60546875 86.8515625 C123.55187334 93.61428142 117.24446801 98.02318821 109 100 C100.04084952 101.16810572 93.55207368 99.97685843 86 95 C81.86263267 91.45272086 78.09024167 87.60999221 74.3125 83.6875 C73.31037125 82.6688125 72.30712064 81.65122737 71.30273438 80.63476562 C66.56125696 75.813419 61.9444748 70.90666241 57.53588867 65.77661133 C55.09436773 62.95242632 52.54492583 60.23073912 50 57.5 C44.63693622 51.71288386 39.41019321 45.83359513 34.296875 39.82421875 C33.28156606 38.63254314 32.26593033 37.4411459 31.25 36.25 C30.73526123 35.64639648 30.22052246 35.04279297 29.69018555 34.42089844 C26.30909806 30.47533189 22.84887252 26.6190729 19.3125 22.8125 C14.29817195 17.39297373 9.62318468 11.75350238 5 6 C3.34199521 3.99253284 1.67210952 1.99574362 0 0 Z " fill="#415A6C" transform="translate(153,183)"/>
<path d="M0 0 C9.91630848 4.79008121 18.36871926 11.23282526 27 18 C27.82975342 18.6496875 27.82975342 18.6496875 28.67626953 19.3125 C33.92520914 23.449334 38.88604088 27.71021541 43.5234375 32.5234375 C45.09766332 34.159558 45.09766332 34.159558 47.5 35.9375 C51.1174401 38.92188809 53.97234602 42.43067535 57 46 C57.83917969 46.95132813 58.67835938 47.90265625 59.54296875 48.8828125 C66.46896359 56.78726512 72.47508367 65.06236786 78 74 C78.56799316 74.91724854 78.56799316 74.91724854 79.14746094 75.85302734 C100.56724045 110.97366322 112.92720503 152.84239885 112 194 C111.34 194 110.68 194 110 194 C109.91024902 193.35264893 109.82049805 192.70529785 109.72802734 192.03833008 C107.71443735 177.81907469 105.11103584 164.12452848 100.76904297 150.42724609 C100.02482253 148.07834462 99.30986114 145.72205156 98.59765625 143.36328125 C85.62072307 101.42176065 57.002866 63.11811227 22 37 C21.43410156 36.57332031 20.86820312 36.14664063 20.28515625 35.70703125 C10.95793149 28.70622745 1.12983313 22.76394863 -9 17 C-7.51481201 12.95698825 -5.57122002 9.38853744 -3.375 5.6875 C-2.74335938 4.61886719 -2.11171875 3.55023438 -1.4609375 2.44921875 C-0.97882813 1.64097656 -0.49671875 0.83273438 0 0 Z " fill="#DEA952" transform="translate(369,61)"/>
<path d="M0 0 C1.33858524 2.28874173 2.67101014 4.58069656 4 6.875 C4.3815625 7.52597656 4.763125 8.17695312 5.15625 8.84765625 C8 13.7734375 8 13.7734375 8 16 C7.34515625 16.3403125 6.6903125 16.680625 6.015625 17.03125 C-20.80824739 31.27669635 -45.54739935 51.84740634 -63.70898438 76.26464844 C-64.55007113 77.39521664 -65.39744514 78.52114296 -66.25195312 79.64160156 C-84.32427588 103.34183465 -96.21909504 130.35977115 -104 159 C-104.48919922 160.77890625 -104.48919922 160.77890625 -104.98828125 162.59375 C-107.492616 172.55971803 -108.653726 182.8257471 -110 193 C-110.66 193 -111.32 193 -112 193 C-112.42099745 179.356564 -111.3653098 166.43773937 -109 153 C-108.86609863 152.21157715 -108.73219727 151.4231543 -108.59423828 150.61083984 C-99.67123128 99.26839832 -70.03262065 50.11248572 -29 18 C-27.95807539 17.1669892 -26.91641637 16.33364611 -25.875 15.5 C-6.32651457 0 -6.32651457 0 0 0 Z " fill="#53B1D8" transform="translate(143,63)"/>
<path d="M0 0 C4.4003222 2.5169843 6.98777471 5.75742133 8.75 10.5 C9.62309093 15.50675153 9.37136984 19.23336148 7.125 23.8125 C-0.26269106 32.17225567 -0.26269106 32.17225567 -5.421875 32.73828125 C-11.27806674 32.90686859 -14.68413294 32.53495229 -19.25 28.5 C-24.01974194 23.41918793 -25.68005011 20.10774186 -25.58984375 13.171875 C-24.94285977 8.0852423 -22.48597752 4.46410928 -18.67578125 1.1171875 C-12.84512672 -2.76991552 -6.34050437 -2.67471371 0 0 Z " fill="#FB6F58" transform="translate(264.25,238.5)"/>
</svg>
